# xmcd
#
# Track frame offsets: 
#        150
#        12893
#        26894
#        38721
#        53392
#        65444
#        77499
#        91114
#        103570
#        114872
#        130098
#        143512
#        154374
#        165181
#        178297
#
# Disc length: 2534 seconds
#
# Revision: 1
# Processed by: cddbd v1.5.2PL0 Copyright (c) Steve Scherf et al.
# Submitted via: ExactAudioCopy v1.0b1
#
DISCID=ab09e40f
DTITLE=Johnnie Taylor - Who's Making Love (Plus)
DYEAR=2000
DGENRE=R&B
TTITLE0=Who's Making Love
TTITLE1=I'm Not The Same Person
TTITLE2=Hold On This Time
TTITLE3=Woman Across The River
TTITLE4=Can't Trust Your Neighbour
TTITLE5=Take Care Of Your Homework
TTITLE6=I'm Trying
TTITLE7=Poor Make Believer
TTITLE8=Payback Hurts
TTITLE9=Mr Nobody Is Somebody Now
TTITLE10=I'd Rather Drink Muddy Water
TTITLE11=Twenty Years From Today
TTITLE12=Save Your Love For Me
TTITLE13=Rumors
TTITLE14=Lovin' On Borrowed Time
EXTD=
EXTT0=
EXTT1=
EXTT2=
EXTT3=
EXTT4=
EXTT5=
EXTT6=
EXTT7=
EXTT8=
EXTT9=
EXTT10=
EXTT11=
EXTT12=
EXTT13=
EXTT14=
PLAYORDER=
